<svg id="Layer_1" data-name="Layer 1" xmlns="http://www.w3.org/2000/svg" viewBox="0 0 2753.64 688.49">
  <defs>
    <style>
      .cls-1 {
        font-size: 185px;
        font-family: Gotham-Medium, Gotham;
        font-weight: 500;
      }

      .cls-1, .cls-4 {
        fill: #1f4465;
      }

      .cls-2 {
        letter-spacing: -0.01em;
      }

      .cls-3 {
        letter-spacing: -0.01em;
      }

      .cls-5 {
        fill: #e4003a;
      }
    </style>
  </defs>
  <text x="-343.94" y="-594"/>  <text class="cls-1" transform="translate(0 515.54)">Making a<tspan class="cls-2" x="832.49" y="0">n</tspan><tspan x="944.41" y="0">ything po</tspan><tspan class="cls-3" x="1837.77" y="0">s</tspan><tspan x="1928.42" y="0">sible</tspan></text>
  <path class="cls-4" d="M2498.59,899.33A4.65,4.65,0,0,1,2494,904h-47a7.76,7.76,0,0,1-6.71-5l-26-79.3h-86.44l-26,80.13a7.11,7.11,0,0,1-6.31,4.19h-45.72c-3,0-5.45-2.09-5.45-4.62,0-.4.42-1.24.42-1.66l80.54-225.11a6.23,6.23,0,0,1,6.08-4.19h81.19c3.53,0,5,1.66,5.86,3.77l79.7,225.53a3.08,3.08,0,0,1,.43,1.66M2377.33,714.08h-13L2340,779.78h62.07Z" transform="translate(-343.94 -594)"/>
  <path class="cls-4" d="M706.88,909.18c-73,0-106.55-28.09-106.55-91.45v-143a6.53,6.53,0,0,1,5.89-6.48l41.77,0h.84c3.36,0,6.44,1.79,6.44,6.3V821.09c0,30.62,9.66,48.25,51.61,48.25,36.94,0,51.21-14.27,51.21-45.32V673.69c0-3.37,2.5-5.06,5.86-5.44l41.7,0h.87c2.92,0,6.51,1.17,6.51,6.3V816.89c0,58.71-28.14,92.29-106.15,92.29" transform="translate(-343.94 -594)"/>
  <path class="cls-4" d="M456.43,908.76c-30.78,0-54.55-5-71.75-15.53-9.84-6-15.31-8.92-20.93-18.66-1.93-3.35.49-6.83,4.89-8.79,10.18-4.52,19-7.81,34.79-14.58,4.3-1.85,8.25,1.1,9.6,2.87,7.36,9.65,20.62,14.85,43.4,14.85,36.93,0,51.2-14.27,51.2-45.32V600.82c0-3.36,2.5-5.06,5.86-5.43l41.71,0h.86c2.92,0,6.52,1.18,6.52,6.3V816.48c0,58.71-28.14,92.28-106.15,92.28" transform="translate(-343.94 -594)"/>
  <path class="cls-4" d="M938.65,908.34c-36.47,0-70.45-7.56-85.59-12.16a8.06,8.06,0,0,1-5.86-8v-1.7l5-24.73a5.88,5.88,0,0,1,6.29-5.06,5.13,5.13,0,0,1,2.53.44c14.24,2.92,44.86,10.48,73.84,10.48,26.83,0,46.13-7.15,46.13-29.77,0-17.62-12.58-23.07-28.52-26.43-7.13-1.27-15.1-2.53-23.5-3.77-19.73-2.53-44.46-7.14-61.67-21-13.41-10.51-22.21-26.43-22.21-50.75,0-57.9,45.69-72.58,96.47-72.58,31.88,0,64.19,6.72,80.13,11.32,4.19.83,7.11,3.79,7.11,7.55a3.12,3.12,0,0,1-.42,2.09l-5.44,25.6a5.91,5.91,0,0,1-5.88,4.6h-1.26c-13.82-2.94-41.94-10-70.88-10-24.34,0-44.89,4.62-44.89,26.44,0,16.77,13.86,23.07,28.94,26.43,7.13,1.66,15.12,2.92,23.5,4.19,19.3,2.5,41.1,5.45,57.47,15.94,16.37,10,27.28,26.85,27.28,56.64,0,57.89-49.51,74.24-98.6,74.24" transform="translate(-343.94 -594)"/>
  <path class="cls-4" d="M1936.85,710.75c-.43,3.36-3,4.6-5.89,4.6-.8,0-2.07-.41-3.33-.41-16.8-4.19-39.87-10.49-73.85-10.49-52.87,0-72.17,16.79-72.17,82.65,0,66.27,18.47,82.62,71.75,82.62a190.93,190.93,0,0,0,34.4-3.33l.12-96.12c0-6.28,4.65-7.51,7.59-7.51h39.29c3.75,0,6.7,2.53,6.7,6.29v99c0,17.63-3,27.71-21.79,33.16-16.39,5-47.85,8-68,8-94.78,0-126.26-33.57-126.26-122.92,0-85.13,31.89-123.35,120.41-123.35,47.38,0,84.76,10.91,90.61,13,4.62,1.66,6.28,3.36,6.28,6.72a8.55,8.55,0,0,1-.39,2.9Z" transform="translate(-343.94 -594)"/>
  <rect class="cls-4" x="1289.04" y="74.41" width="54.6" height="235.53" rx="6.95"/>
  <rect class="cls-4" x="1636.81" y="74.41" width="54.6" height="235.53" rx="6.95"/>
  <path class="cls-4" d="M2268.62,668.37H2072.21a7,7,0,0,0-6.95,7v31.34a7,7,0,0,0,6.95,7h70.37V897a7,7,0,0,0,7,7h40.69a7,7,0,0,0,7-7V713.62h71.45a7,7,0,0,0,7-7V675.32A7,7,0,0,0,2268.62,668.37Z" transform="translate(-343.94 -594)"/>
  <path class="cls-4" d="M1261.34,668.41h-196.4a7,7,0,0,0-7,7v31.3a7,7,0,0,0,7,7h70.36V897a7,7,0,0,0,7,7H1183a7,7,0,0,0,7-7V713.62h71.44a7,7,0,0,0,7-7v-31.3A7,7,0,0,0,1261.34,668.41Z" transform="translate(-343.94 -594)"/>
  <path class="cls-4" d="M2692.32,859.15H2586.76V675.32a7,7,0,0,0-7-7h-40.69a7,7,0,0,0-7,7V897a7,7,0,0,0,7,7h40.69c.14,0,.27,0,.41,0h112.11a7,7,0,0,0,6.95-7V866.1A7,7,0,0,0,2692.32,859.15Z" transform="translate(-343.94 -594)"/>
  <path class="cls-5" d="M2733.66,766.38l-29.36-35c-2.66-3.18-3-7.08-.47-9.24l151.65-127.24c2.28-1.89,5.2-.72,7.86,1.86l37.57,30.67.89,1a4.78,4.78,0,0,1-.44,7l-158.68,133c-2.56,2.12-6.36,1.09-9-2.09" transform="translate(-343.94 -594)"/>
  <path class="cls-5" d="M2790.4,833.85l-30.32-36.16c-2.79-3.28-2.73-7.68.55-10.44l189.66-158.83c2.94-2.46,6.24-1.49,9.05,1.12l39,31.54.88,1.09c2.17,2.56,1.23,5.86-1.35,8L2800.76,835.09c-3.28,2.76-7.6,2-10.36-1.24" transform="translate(-343.94 -594)"/>
  <path class="cls-5" d="M2847.34,901.49,2817,865.33c-2.76-3.28-2.32-8,1.54-11.23l228.34-191.64c3.43-2.85,7-2.11,9.87.45l38.87,31.49.91,1.09c2.14,2.56.8,6.17-2.21,8.71L2858.68,901.91c-3.87,3.26-8.58,2.86-11.34-.42" transform="translate(-343.94 -594)"/>
  <path class="cls-4" d="M1464.25,904.1H1347.11a6.19,6.19,0,0,1-6.25-6.25V602.28a6.18,6.18,0,0,1,6.25-6.25h117.14c95.67,0,132.36,49.74,132.36,157.09,0,107.76-36.69,151-132.36,151m-6.64-267.87H1397.1V863.9l60.51-.43c58.56,0,81.61-23.29,81.61-110.73s-23-116.51-81.61-116.51" transform="translate(-343.94 -594)"/>
  <g>
    <path class="cls-4" d="M2616.44,626.32V618.9h32.91v7.42h-12v32.73h-8.83V626.32Z" transform="translate(-343.94 -594)"/>
    <path class="cls-4" d="M2668.07,618.9l9.39,27.61h.12l8.88-27.61h12.43v40.15h-8.26V630.59h-.12l-9.84,28.46h-6.8L2664,630.88h-.12v28.17h-8.27V618.9Z" transform="translate(-343.94 -594)"/>
  </g>
</svg>
