<?xml version="1.0" encoding="utf-8"?>
<!-- Generator: Adobe Illustrator 27.4.0, SVG Export Plug-In . SVG Version: 6.00 Build 0)  -->
<svg version="1.1" id="Layer_1" xmlns="http://www.w3.org/2000/svg" xmlns:xlink="http://www.w3.org/1999/xlink" x="0px" y="0px"
	 viewBox="0 0 2758.6 317.7" style="enable-background:new 0 0 2758.6 317.7;" xml:space="preserve">
<style type="text/css">
	.st0{fill:#FFFFFF;}
	.st1{fill:#FFFFFF;stroke:#000000;stroke-width:9;stroke-miterlimit:10;}
</style>
<path class="st0" d="M2155.7,307.3c0,2.5-2.1,4.6-4.6,4.6h-47.3c-3,0-5.9-2.5-6.7-5.1l-26.2-79.8h-87l-26.1,80.6
	c-0.9,2.1-3.4,4.2-6.4,4.2h-46c-3,0-5.5-2.1-5.5-4.6c0-0.4,0.4-1.2,0.4-1.7l81.1-226.6c0.8-2.5,3.3-4.2,6.1-4.2h81.7
	c3.6,0,5.1,1.7,5.9,3.8l80.2,227C2155.7,306.5,2155.7,306.9,2155.7,307.3 M2033.7,120.8h-13.1l-24.5,66.1h62.5L2033.7,120.8z"/>
<path class="st0" d="M352.5,317.2c-73.5,0-107.2-28.3-107.2-92V81.3c0-3.4,2.5-6.1,5.9-6.5l42,0h0.8c3.4,0,6.5,1.8,6.5,6.3v147.5
	c0,30.8,9.7,48.6,51.9,48.6c37.2,0,51.5-14.4,51.5-45.6V80.2c0-3.4,2.5-5.1,5.9-5.5l42,0h0.9c2.9,0,6.6,1.2,6.6,6.3v143.3
	C459.4,283.4,431,317.2,352.5,317.2"/>
<path class="st0" d="M100.5,316.8c-31,0-54.9-5-72.2-15.6c-9.9-6.1-15.4-9-21.1-18.8c-1.9-3.4,0.5-6.9,4.9-8.8
	c10.2-4.6,19.2-7.9,35-14.7c4.3-1.9,8.3,1.1,9.7,2.9c7.4,9.7,20.8,14.9,43.7,14.9c37.2,0,51.5-14.4,51.5-45.6V6.9
	c0-3.4,2.5-5.1,5.9-5.5l42,0h0.9c2.9,0,6.6,1.2,6.6,6.3v216.2C207.3,283,179,316.8,100.5,316.8"/>
<path class="st0" d="M585.8,316.4c-36.7,0-70.9-7.6-86.1-12.2c-3.8-1.3-5.9-4.2-5.9-8v-1.7l5.1-24.9c0.8-3.8,3.4-5.1,6.3-5.1
	c0.8,0,1.7,0,2.5,0.4c14.3,2.9,45.1,10.5,74.3,10.5c27,0,46.4-7.2,46.4-30c0-17.7-12.7-23.2-28.7-26.6c-7.2-1.3-15.2-2.5-23.7-3.8
	c-19.8-2.5-44.7-7.2-62.1-21.1c-13.5-10.6-22.4-26.6-22.4-51.1c0-58.3,46-73,97.1-73c32.1,0,64.6,6.8,80.6,11.4
	c4.2,0.8,7.2,3.8,7.2,7.6c0,0.8,0,1.7-0.4,2.1l-5.5,25.8c-0.4,2.5-3,4.6-5.9,4.6h-1.3c-13.9-3-42.2-10.1-71.3-10.1
	c-24.5,0-45.2,4.6-45.2,26.6c0,16.9,14,23.2,29.1,26.6c7.2,1.7,15.2,2.9,23.7,4.2c19.4,2.5,41.4,5.5,57.8,16
	c16.5,10.1,27.5,27,27.5,57C685,299.9,635.2,316.4,585.8,316.4"/>
<path class="st0" d="M1590.4,117.5c-0.4,3.4-3,4.6-5.9,4.6c-0.8,0-2.1-0.4-3.3-0.4c-16.9-4.2-40.1-10.6-74.3-10.6
	c-53.2,0-72.6,16.9-72.6,83.2c0,66.7,18.6,83.2,72.2,83.2c15.2,0,31.2-2.5,34.6-3.3l0.1-96.7c0-6.3,4.7-7.6,7.6-7.6h39.5
	c3.8,0,6.7,2.5,6.7,6.3v99.6c0,17.7-3,27.9-21.9,33.4c-16.5,5.1-48.2,8-68.4,8c-95.4,0-127.1-33.8-127.1-123.7
	c0-85.7,32.1-124.1,121.2-124.1c47.7,0,85.3,11,91.2,13.1c4.6,1.7,6.3,3.4,6.3,6.8c0,0.8,0,1.7-0.4,2.9L1590.4,117.5z"/>
<path class="st0" d="M1339.5,304.9c0,3.9-3.1,7-7,7h-41c-3.9,0-7-3.1-7-7v-223c0-3.9,3.1-7,7-7h41c3.9,0,7,3.1,7,7V304.9z"/>
<path class="st0" d="M1689.5,304.9c0,3.9-3.1,7-7,7h-41c-3.9,0-7-3.1-7-7v-223c0-3.9,3.1-7,7-7h41c3.9,0,7,3.1,7,7V304.9z"/>
<path class="st0" d="M1924.3,74.8h-197.7c-3.9,0-7,3.1-7,7v31.5c0,3.9,3.1,7,7,7h70.8v184.5c0,3.9,3.1,7,7,7h41c3.9,0,7-3.1,7-7
	V120.4h71.9c3.9,0,7-3.1,7-7V81.8C1931.3,78,1928.2,74.8,1924.3,74.8z"/>
<path class="st0" d="M910.6,74.9H712.9c-3.9,0-7,3.1-7,7v31.5c0,3.9,3.1,7,7,7h70.8v184.5c0,3.9,3.1,7,7,7h41c3.9,0,7-3.1,7-7V120.4
	h71.9c3.9,0,7-3.1,7-7V81.9C917.6,78,914.4,74.9,910.6,74.9z"/>
<path class="st0" d="M2350.7,266.9h-106.2v-185c0-3.9-3.1-7-7-7h-41c-3.9,0-7,3.1-7,7V305c0,3.9,3.1,7,7,7h41c0.1,0,0.3,0,0.4,0
	h112.8c3.9,0,7-3.1,7-7v-31.1C2357.7,270,2354.6,266.9,2350.7,266.9z"/>
<path class="st0" d="M2392.3,173.5l-29.5-35.2c-2.7-3.2-3-7.1-0.5-9.3L2514.9,0.9c2.3-1.9,5.2-0.7,7.9,1.9l37.8,30.9l0.9,1
	c2.1,2.5,1.6,5.4-0.4,7.1l-159.7,133.8C2398.8,177.7,2395,176.7,2392.3,173.5"/>
<path class="st0" d="M2449.4,241.4l-30.5-36.4c-2.8-3.3-2.8-7.7,0.5-10.5l190.9-159.9c3-2.5,6.3-1.5,9.1,1.1l39.3,31.7l0.9,1.1
	c2.2,2.6,1.2,5.9-1.4,8.1l-198.4,166C2456.6,245.4,2452.2,244.7,2449.4,241.4"/>
<path class="st0" d="M2506.7,309.5l-30.5-36.4c-2.8-3.3-2.3-8.1,1.6-11.3l229.8-192.9c3.5-2.9,7.1-2.1,9.9,0.4l39.1,31.7l0.9,1.1
	c2.2,2.6,0.8,6.2-2.2,8.8l-237.2,199C2514.3,313.2,2509.5,312.8,2506.7,309.5"/>
<path class="st0" d="M1114.8,312.1H996.9c-3.5,0-6.3-2.8-6.3-6.3V8.3c0-3.5,2.8-6.3,6.3-6.3h117.9C1211,2,1248,52.1,1248,160.1
	C1248,268.6,1211,312.1,1114.8,312.1 M1108.1,42.5h-60.9v229.1l60.9-0.4c58.9,0,82.1-23.4,82.1-111.4
	C1190.2,71.7,1167,42.5,1108.1,42.5"/>
<g>
	<path class="st0" d="M2274.4,32.5v-7.5h33.1v7.5h-12.1v32.9h-8.9V32.5H2274.4z"/>
	<path class="st0" d="M2326.3,25.1l9.5,27.8h0.1l8.9-27.8h12.5v40.4h-8.3V36.8h-0.1l-9.9,28.6h-6.9l-9.9-28.4h-0.1v28.4h-8.3V25.1
		H2326.3z"/>
</g>
<path class="st1" d="M7.2,282.4"/>
</svg>
